<svg xmlns="http://www.w3.org/2000/svg" viewBox="0 0 429.17 111.96"><defs><style>.cls-1{fill:#231f20;}.cls-2{fill:#020000;}.cls-3{fill:#32bdb8;}</style></defs><title>tezlom-logo-black</title><g id="Layer_2" data-name="Layer 2"><g id="Layer_1-2" data-name="Layer 1"><path class="cls-1" d="M30.67,97a3.05,3.05,0,0,1-.9-2.27V13.23H3.17A3,3,0,0,1,.9,12.34,3.09,3.09,0,0,1,0,10.06V4.69A3.28,3.28,0,0,1,.9,2.27a3.08,3.08,0,0,1,2.27-.89H69.34a3,3,0,0,1,2.34.89,3.45,3.45,0,0,1,.83,2.42v5.37a3.06,3.06,0,0,1-3.17,3.17H42.87V94.7a2.93,2.93,0,0,1-1,2.27,3.3,3.3,0,0,1-2.34.9H33A3.07,3.07,0,0,1,30.67,97Z"></path><path class="cls-1" d="M71.68,90.49q-8.42-8.74-9.24-23.91l-.14-4.69.14-4.55q.83-14.88,9.24-23.71t22.46-8.82q15.17,0,23.51,9.65T126,60.65v2.48a3.06,3.06,0,0,1-3.17,3.17H75v1.24a25.54,25.54,0,0,0,5.51,15.3A16.46,16.46,0,0,0,94,89.18c4.32,0,7.83-.84,10.54-2.55a22.35,22.35,0,0,0,6.14-5.3,7,7,0,0,1,1.93-2A5.62,5.62,0,0,1,115,79H121a3.47,3.47,0,0,1,2.14.69,2.16,2.16,0,0,1,.9,1.8q0,3-3.72,7.3a30.55,30.55,0,0,1-10.55,7.38,37.59,37.59,0,0,1-15.65,3.1Q80.08,99.25,71.68,90.49Zm41.76-33.56v-.41q0-9.66-5.23-15.72T94.14,34.74q-9,0-14,6.06T75,56.52v.41Z"></path><path class="cls-1" d="M208,97a3.05,3.05,0,0,1-.9-2.27V3.17A3,3,0,0,1,208,.83,3.21,3.21,0,0,1,210.24,0h6.07a3.08,3.08,0,0,1,3.17,3.17V94.7a3.08,3.08,0,0,1-3.17,3.17h-6.07A3.05,3.05,0,0,1,208,97Z"></path><path class="cls-1" d="M316.92,97a3.05,3.05,0,0,1-.9-2.27V29.36a3.08,3.08,0,0,1,3.17-3.17H325a2.86,2.86,0,0,1,2.21.9,3.22,3.22,0,0,1,.82,2.27v4.69q7.46-9.24,20.13-9.24,15.17,0,21.5,12.68a24.39,24.39,0,0,1,9.45-9.23,27.46,27.46,0,0,1,13.71-3.45q11.29,0,18.47,7.72t7.17,22.33V94.7a3.08,3.08,0,0,1-3.17,3.17h-5.93a3.08,3.08,0,0,1-3.17-3.17V56.1q0-11-4.55-15.78t-12-4.76a15.32,15.32,0,0,0-11.37,4.9q-4.75,4.89-4.76,15.64V94.7a3.06,3.06,0,0,1-3.17,3.17h-6.06A3.09,3.09,0,0,1,362,97a3,3,0,0,1-.89-2.27V56.1q0-10.89-4.76-15.71a15.88,15.88,0,0,0-11.78-4.83,15.4,15.4,0,0,0-11.38,4.83q-4.76,4.83-4.75,15.57V94.7a3.08,3.08,0,0,1-3.17,3.17h-6.07A3.05,3.05,0,0,1,316.92,97Z"></path><path class="cls-2" d="M421.32,24.82h-1.17V20.19h-1.7v-1H423v1h-1.71Z"></path><path class="cls-2" d="M429.17,24.82h-1.1V20.11h0L427,24.82h-1.15l-1-4.71h0v4.71h-1.1V19.19h1.72l1,4.44h0l1-4.44h1.7Z"></path><path class="cls-3" d="M304.11,56.1q-.62-14.19-10-22.74t-26.23-8.55q-16.8,0-26.22,8.55t-10,22.74L231.44,62l.15,5.93q.61,14.19,9.88,22.74a29.45,29.45,0,0,0,9.88,5.94,12,12,0,0,1,3.07,2.45c3.3,3.65,6.69,7.21,10,10.82,2.53,2.72,4.81,2.74,7.31,0q5.3-5.7,10.6-11.4A10.75,10.75,0,0,1,285,96.39a29.14,29.14,0,0,0,9.23-5.69q9.25-8.55,9.88-22.74a55.11,55.11,0,0,0,0-11.86Zm-15.37,3.23a24.76,24.76,0,0,1-4.07,11.08A37.75,37.75,0,0,1,270,83.82a4.53,4.53,0,0,1-3.74.12,36.64,36.64,0,0,1-17-17.22c-1.93-4.08-3-8.38-1.26-12.93s5-7.33,9.45-7.8c4-.41,7.4,1.3,9.92,4.9l.65.91A11.76,11.76,0,0,1,276,46.07C282.84,44.83,289.43,51.66,288.74,59.33Z"></path><path class="cls-1" d="M136.91,97.09a3.09,3.09,0,0,1-.9-2.28V90.24a4.78,4.78,0,0,1,.62-2.28,18.29,18.29,0,0,1,1.31-2.15l38.61-49.12H140.43a2.86,2.86,0,0,1-2.21-.9,3.25,3.25,0,0,1-.83-2.28V29.22a3.25,3.25,0,0,1,.83-2.28,2.86,2.86,0,0,1,2.21-.9h49a3.08,3.08,0,0,1,3.18,3.18v4.84q0,1.53-1.94,4.29l-38,49h39.57a2.89,2.89,0,0,1,3.19,3.19v4.29A3.08,3.08,0,0,1,192.18,98h-53A3.09,3.09,0,0,1,136.91,97.09Z"></path></g></g></svg>